<svg width="32" height="32" viewBox="0 0 32 32" xmlns="http://www.w3.org/2000/svg">
  <defs>
    <linearGradient id="faviconGradient" x1="0%" y1="0%" x2="100%" y2="100%">
      <stop offset="0%" style="stop-color:#0FC2C0;stop-opacity:1" />
      <stop offset="100%" style="stop-color:#2B2D42;stop-opacity:1" />
    </linearGradient>
  </defs>
  
  <!-- Background circle -->
  <circle cx="16" cy="16" r="15" fill="url(#faviconGradient)" stroke="#0FC2C0" stroke-width="1"/>
  
  <!-- C letter -->
  <path d="M8 8 C8 6, 10 4, 12 4 L20 4 C22 4, 24 6, 24 8 L24 12 C24 14, 22 16, 20 16 L12 16 C10 16, 8 14, 8 12 Z" fill="white" stroke="#0FC2C0" stroke-width="1"/>
  
  <!-- R letter -->
  <path d="M26 4 L30 4 C31 4, 32 5, 32 6 L32 10 C32 11, 31 12, 30 12 L26 12 L26 16 L28 16" fill="none" stroke="white" stroke-width="1.5" stroke-linecap="round"/>
</svg> 