<svg width="200" height="60" viewBox="0 0 200 60" xmlns="http://www.w3.org/2000/svg">
  <defs>
    <linearGradient id="logoGradient" x1="0%" y1="0%" x2="100%" y2="0%">
      <stop offset="0%" style="stop-color:#0FC2C0;stop-opacity:1" />
      <stop offset="100%" style="stop-color:#2B2D42;stop-opacity:1" />
    </linearGradient>
  </defs>
  
  <!-- C letter -->
  <path d="M15 15 C15 10, 20 5, 25 5 L35 5 C40 5, 45 10, 45 15 L45 20 C45 25, 40 30, 35 30 L25 30 C20 30, 15 25, 15 20 Z" fill="url(#logoGradient)" stroke="#0FC2C0" stroke-width="2"/>
  
  <!-- R letter -->
  <path d="M50 5 L60 5 C65 5, 70 10, 70 15 L70 20 C70 25, 65 30, 60 30 L50 30 L50 40 L55 40" fill="none" stroke="url(#logoGradient)" stroke-width="3" stroke-linecap="round"/>
  
  <!-- E letter -->
  <path d="M75 5 L95 5 M75 5 L75 40 L95 40 M75 17.5 L90 17.5" fill="none" stroke="url(#logoGradient)" stroke-width="3" stroke-linecap="round"/>
  
  <!-- O letter -->
  <ellipse cx="110" cy="22.5" rx="10" ry="12.5" fill="none" stroke="url(#logoGradient)" stroke-width="3"/>
  
  <!-- V letter -->
  <path d="M125 5 L135 30 L145 5" fill="none" stroke="url(#logoGradient)" stroke-width="3" stroke-linecap="round"/>
  
  <!-- A letter -->
  <path d="M150 40 L160 5 L170 40 M155 25 L165 25" fill="none" stroke="url(#logoGradient)" stroke-width="3" stroke-linecap="round"/>
  
  <!-- Technologies text -->
  <text x="100" y="50" text-anchor="middle" font-family="Arial, sans-serif" font-size="8" fill="#2B2D42" font-weight="bold">TECHNOLOGIES</text>
</svg> 